<?xml version="1.0" encoding="utf-8"?>
<!-- Generator: Adobe Illustrator 19.0.0, SVG Export Plug-In . SVG Version: 6.00 Build 0)  -->
<svg version="1.1" id="Layer_1" xmlns="http://www.w3.org/2000/svg" xmlns:xlink="http://www.w3.org/1999/xlink" x="0px" y="0px"
	 width="34px" height="38px" viewBox="0 0 34 38" style="enable-background:new 0 0 34 38;" xml:space="preserve">
<style type="text/css">
	.st0{fill:#FFFFFF;}
</style>
<path id="XMLID_7_" class="st0" d="M33.7,10.2c-0.5-2.5-2.3-4-4.7-4.7c-3-0.9-6-0.7-9,0.3c-0.4,0.1-0.9,0.1-1.3-0.1
	c-3.1-1-6.2-1-9.3,0.2C6.6,7,5.2,9.4,5.3,12.7c0,2.3,0.6,4.5,1.8,6.4c1.6,2.5,2.2,5.2,2.2,8.1c0,3,0.2,5.9,1.8,8.6
	c0.4,0.8,1.1,1.6,1.8,1.9c1.7,0.7,3.2-0.4,3.3-2.4c0.1-1.5,0-3.1,0.1-4.6c0.1-2,0.6-3.9,1.5-5.7c0.4-0.8,1.1-1.5,2-1.5
	c1,0,1.5,0.7,1.9,1.5c1.4,2.8,1.9,5.8,1.8,8.9c0,0.2,0,0.4,0,0.6c0,1.2,0.2,2.3,1.4,3c1.1,0.6,2.1,0.2,3-0.5c0.3-0.5,0.7-1,1-1.5
	c1.4-3.1,1.5-6.5,1.5-9.8c0-2.5,0.7-4.8,2-7C34,16.1,34.3,13.2,33.7,10.2z M30.6,15.8l-2.3-1.6l-2.3,1.6l0.9-2.4L24.7,12h2.8
	l0.9-2.7l0.9,2.7H32l-2.3,1.4L30.6,15.8z"/>
<polygon id="XMLID_56_" class="st0" points="3,0 3.7,2.2 6,2.2 4.2,3.5 4.9,5.7 3,4.4 1.1,5.7 1.9,3.5 0,2.2 2.3,2.2 "/>
</svg>
