<?xml version="1.0" encoding="utf-8"?>
<!-- Generator: Adobe Illustrator 19.0.0, SVG Export Plug-In . SVG Version: 6.00 Build 0)  -->
<svg version="1.1" id="Layer_1" xmlns="http://www.w3.org/2000/svg" xmlns:xlink="http://www.w3.org/1999/xlink" x="0px" y="0px"
	 width="17px" height="19px" viewBox="0 0 17 19" style="enable-background:new 0 0 17 19;" xml:space="preserve">
<style type="text/css">
	.st0{fill:#FFFFFF;}
</style>
<g id="XMLID_2_">
	<path id="XMLID_3_" class="st0" d="M14,17.6c-0.2,0.3-0.4,0.6-0.6,0.8c-0.5,0.4-1.1,0.6-1.8,0.3c-0.7-0.4-0.8-1-0.8-1.7
		c0-0.1,0-0.2,0-0.3c0.1-1.8-0.2-3.5-1-5.1c-0.2-0.5-0.5-0.9-1.1-0.9c-0.6,0-1,0.4-1.2,0.8c-0.5,1-0.8,2.1-0.9,3.2
		c0,0.9,0,1.8-0.1,2.6c-0.1,1.1-0.9,1.8-2,1.4c-0.4-0.2-0.8-0.7-1.1-1.1c-0.9-1.5-1-3.2-1.1-4.9c0-1.7-0.4-3.2-1.3-4.7
		C0.3,7.1,0,5.8,0,4.5c0-1.9,0.8-3.3,2.5-3.9C4.3-0.1,6.2,0,8,0.5c0.2,0.1,0.5,0.1,0.8,0c1.8-0.6,3.5-0.7,5.3-0.2
		c1.4,0.4,2.5,1.3,2.8,2.7C17.2,4.8,17,6.5,16,8c-0.8,1.2-1.2,2.6-1.2,4C14.8,13.9,14.8,15.8,14,17.6z"/>
</g>
</svg>
