<?xml version="1.0" encoding="utf-8"?>
<!-- Generator: Adobe Illustrator 19.0.0, SVG Export Plug-In . SVG Version: 6.00 Build 0)  -->
<svg version="1.1" id="Layer_1" xmlns="http://www.w3.org/2000/svg" xmlns:xlink="http://www.w3.org/1999/xlink" x="0px" y="0px"
	 width="1303.1px" height="612px" viewBox="0 0 1303.1 612" style="enable-background:new 0 0 1303.1 612;" xml:space="preserve">
<style type="text/css">
	.st0{fill:#DDE4F4;}
</style>
<g>
	<path class="st0" d="M0,612c1-2,1.6-4.3,3.1-5.8c34.1-34.7,70.5-66.5,111.5-92.9c43.4-28,90-48.1,140.9-57.8
		c46.3-8.8,92.8-11.7,139.7-5.7c35.5,4.5,70.9,9.8,106.5,13.8c56.5,6.3,113.1,10.7,170.1,6.3c45.6-3.5,90.3-12,134.6-23.2
		c56.9-14.3,107.7-41.2,157.1-72c28.9-18.1,52.5-41.8,77.1-64.6c24.8-22.9,45.3-49.6,64.9-77.1c25.2-35.4,49.7-71.4,76.8-105.4
		c35.6-44.7,74.6-86.6,116.9-125.2c0.7-0.6,1.2-1.5,1.8-2.2c0.7,0.3,1.8,0.5,1.9,1c0.3,1.1,0.1,2.3,0.1,3.5c0,202.5,0,405,0,607.5
		C868.7,612,434.3,612,0,612z"/>
</g>
</svg>
