<svg xmlns="http://www.w3.org/2000/svg" width="4800" height="330" viewBox="0 0 1600 110">
  <defs>
    <style>
      .cls-1 {
        fill: #f6f9fe;
        fill-rule: evenodd;
      }
    </style>
  </defs>
  <path class="cls-1" d="M1600-.134V110H0V41.917C62.22,27.774,125.373,20.644,188.964,16.974a1256.118,1256.118,0,0,1,131.422-1.08c61.411,2.887,122.833,5.691,184.2,9.393C557.627,28.488,610.591,33,663.6,36.735c51.186,3.606,102.36,7.513,153.594,10.286,63.718,3.449,127.466,6.83,191.243,8.5,87.5,2.291,174.97.993,262.03-9.643,31.41-3.837,62.68-8.615,93.35-16.6C1441.26,9.11,1519.82-2,1600-.134Z"/>
</svg>
