<?xml version="1.0" encoding="utf-8"?>
<!-- Generator: Adobe Illustrator 19.0.0, SVG Export Plug-In . SVG Version: 6.00 Build 0)  -->
<svg version="1.1" id="Layer_1" xmlns="http://www.w3.org/2000/svg" xmlns:xlink="http://www.w3.org/1999/xlink" x="0px" y="0px"
	 width="234.1px" height="55.4px" viewBox="0 0 234.1 55.4" style="enable-background:new 0 0 234.1 55.4;" xml:space="preserve">
<style type="text/css">
	.st0{fill:#5081F4;}
	.st1{fill:#2D3E50;}
</style>
<g id="XMLID_2_">
	<path id="XMLID_39_" class="st0" d="M0,13.1C0.4,10.1,1.7,7.3,3.7,5C5.4,3.1,7.6,1.8,10,0.9c2.4-0.9,5-1.1,7.5-0.8
		c1.4,0.2,2.8,0.7,4.2,1.3c2.2,1,4.4,2.2,6.5,3.3c1,0.6,1.7,0,2.5-0.4c2-1,3.9-2,5.9-3c6.1-2.8,13.1-1.6,17.9,3
		c1.7,1.6,2.7,3.7,3.1,6c0.8,4.1,0.5,8.2,0,12.2c-0.6,4.9-1.7,9.6-3.4,14.3c-1.7,4.5-3.8,8.8-6.4,12.8c-1.1,1.6-2.2,3.2-3.9,4.3
		c-2.1,1.5-4.2,0.7-5-1.7c-1.2-3.8-2.3-7.6-3.5-11.4c-0.8-2.4-1.7-4.7-3.1-6.7c-0.4-0.5-0.8-1-1.3-1.4c-1.5-1.1-3.2-0.8-4.4,0.7
		c-1.3,1.6-2.1,3.5-2.7,5.4c-1.2,3.9-2.4,7.9-3.6,11.8c-0.2,0.8-0.5,1.6-0.8,2.3c-0.6,1.5-2.6,2.2-4.1,1.5c-1.3-0.7-2.3-1.7-3.2-2.8
		c-2.7-3.6-4.8-7.5-6.6-11.6C4,36.7,2.7,33.2,1.8,29.6C0.9,26,0.3,22.3,0,18.6 M41.4,10.8c0,0.1,0,0.1,0,0.2
		c-0.2,0.1-0.4,0.2-0.6,0.3c-1,0.2-2.1,0.5-3.2,0.6c-2.4,0.2-4.9,0.1-7.1-1c-1.9-1-3.9-2.1-5.7-3.3c-3.5-2.3-7.3-3.6-11.6-2.9
		C11,5.1,8.9,6.1,7.5,8.1c-1.8,2.5-2.3,5.4-2.4,8.4c-0.2,3.9,0.5,7.8,1.6,11.6c1.2,4.4,2.6,8.6,4.8,12.6c0.7,1.2,1.5,2.4,2.5,3.4
		c1,1,2,0.8,2.5-0.6c0.6-1.5,1-3.1,1.5-4.6c1.1-3.1,2.5-6.1,4.8-8.5c1.4-1.5,3.1-2.7,5.2-2.9c2.8-0.3,5,0.8,6.9,2.8
		c2.2,2.2,3.6,4.9,4.7,7.8c0.7,1.9,1.3,3.8,2,5.7c0.3,0.8,0.7,1.8,1.7,1.9c1,0.1,1.7-0.6,2.1-1.3c1-1.6,2-3.2,2.7-4.9
		c2.1-5.1,3.5-10.3,4.4-15.7c0.7-4.1,0.7-8.1-0.1-12.1c-0.4-2-1.2-3.8-2.8-5.1c-2.4-1.9-5.3-2.2-8.2-1.7c-2.7,0.5-5,1.8-7.3,3.2
		c-0.4,0.3-0.4,0.5,0,0.8c2,1.4,4.2,2.4,6.7,2.3C41,10.7,41.2,10.8,41.4,10.8z"/>
	<path id="XMLID_36_" class="st0" d="M205.9,16.9c-0.2,1.1-0.3,2.4-0.6,3.8c-0.9,3.5-3.6,5.7-7.2,6.1c-1.5,0.1-3.1,0.1-4.7-0.1
		c-3.3-0.6-5.6-2.6-6.5-5.9c-0.7-2.6-0.7-5.2-0.1-7.8c1-3.8,3.8-6.2,7.7-6.4c1.4-0.1,2.9-0.1,4.3,0.2c3.7,0.7,6.1,3.3,6.7,7.1
		C205.7,14.6,205.8,15.6,205.9,16.9z M191.4,16.5c0.2,1.2,0.2,2.3,0.5,3.3c0.5,2.1,2,3.1,4.3,3.1c2.3,0,3.8-1,4.3-3.1
		c0.6-2.2,0.6-4.4,0-6.6c-0.4-1.6-1.4-2.6-3.1-2.9c-0.7-0.1-1.5-0.1-2.2,0c-1.6,0.2-2.8,1.1-3.2,2.7
		C191.7,14.1,191.6,15.4,191.4,16.5z"/>
	<path id="XMLID_35_" class="st0" d="M90.4,26.4c0-6.6,0-13.1,0-19.7c1.6,0,3.1,0,4.8,0c0,2.6,0,5.2,0,7.9c2.4,0,4.8,0,7.3,0
		c0-2.6,0-5.2,0-7.9c1.6,0,3.1,0,4.7,0c0,6.5,0,13.1,0,19.7c-1.5,0-3.1,0-4.7,0c0-2.6,0-5.1,0-7.8c-2.5,0-4.8,0-7.3,0
		c0,2.6,0,5.2,0,7.7C93.5,26.4,92,26.4,90.4,26.4z"/>
	<path id="XMLID_34_" class="st0" d="M180.7,12c-1.2-0.5-2.3-1-3.3-1.4c-1.3-0.5-2.7-0.7-4.2-0.5c-2,0.2-3.4,1.3-3.9,3.3
		c-0.6,2.2-0.6,4.4,0,6.5c0.6,2,2.1,3.2,4.1,3.2c0.9,0,1.7-0.1,2.6-0.2c0.5-0.1,0.8-0.3,0.7-0.9c-0.1-0.9,0-1.8,0-2.8
		c-1.1,0-2.1,0-3.2,0c0-1.3,0-2.5,0-3.7c2.7,0,5.3,0,8,0c0,0.4,0,0.8,0,1.3c0,2.5,0,4.9,0,7.4c0,0.3-0.2,0.7-0.4,0.8
		c-3.6,1.9-7.3,2.6-11.2,1.5c-3.3-0.9-5.1-3.3-5.7-6.6c-0.4-2.4-0.4-4.9,0.2-7.3c0.9-3.4,3.6-5.6,7.2-6.1c2.9-0.4,5.7,0.1,8.5,1.1
		c0.4,0.2,0.6,0.4,0.6,0.8C180.6,9.5,180.7,10.7,180.7,12z"/>
	<path id="XMLID_31_" class="st0" d="M161.5,26.4c-1.5,0-3,0-4.4,0c-0.2,0-0.5-0.3-0.6-0.5c-0.5-1.2-0.9-2.5-1.3-3.8
		c-2.4,0-4.7,0-7,0c-0.2,0-0.4,0.3-0.5,0.5c-0.4,1.2-0.8,2.5-1.3,3.7c-1.5,0-3,0-4.5,0c0.1-0.2,0.1-0.4,0.2-0.6
		c2.3-6.2,4.7-12.3,7-18.5c0.2-0.5,0.4-0.7,0.9-0.7c1.3,0,2.7,0,4,0c0.2,0,0.6,0.2,0.7,0.4c2.3,6.4,4.5,12.7,6.8,19.1
		C161.5,26.2,161.5,26.3,161.5,26.4z M151.4,11.2c-0.9,2.6-1.7,5-2.5,7.4c1.7,0,3.3,0,5,0C153.1,16.2,152.3,13.8,151.4,11.2z"/>
	<path id="XMLID_30_" class="st0" d="M233,12c-1-0.5-1.8-1-2.7-1.5c-1.1-0.5-2.4-0.7-3.6-0.6c-1.2,0.2-1.9,0.8-2.1,1.7
		c-0.1,0.9,0.4,1.8,1.5,2.2c1,0.4,2.1,0.7,3.2,1.1c0.3,0.1,0.6,0.2,0.8,0.3c3,1.2,4.1,2.8,3.9,5.7c-0.1,2.6-1.9,4.9-4.6,5.5
		c-3.1,0.7-6.1,0.4-9-0.8c-0.2-0.1-0.4-0.4-0.4-0.6c0-1.3,0-2.6,0-4.1c0.3,0.2,0.5,0.3,0.6,0.4c2,1.3,4.1,1.9,6.5,1.7
		c0.3,0,0.5-0.1,0.8-0.2c0.8-0.3,1.2-0.8,1.3-1.6c0.1-0.8-0.3-1.4-1-1.7c-1-0.4-2-0.8-3-1.2c-0.8-0.3-1.6-0.6-2.4-0.9
		c-4.6-2-3.5-8-0.7-9.8c1.3-0.9,2.8-1.3,4.3-1.4c2.1-0.1,4.1,0.2,6.1,1c0.4,0.2,0.6,0.4,0.6,0.8C233,9.4,233,10.7,233,12z"/>
	<path id="XMLID_29_" class="st0" d="M85.2,21.3c0,1.3,0,2.6,0,3.8c0,0.2-0.2,0.5-0.4,0.6c-3.4,1.4-6.9,1.7-10.4,0.5
		c-2.7-1-4.2-3.1-4.8-5.8c-0.6-2.6-0.6-5.1,0.1-7.7C70.5,9,73,6.8,76.7,6.4C79.5,6,82,6.4,84.6,7.4c0.5,0.2,0.6,0.4,0.6,0.9
		c0,1.1,0,2.2,0,3.5c-0.3-0.2-0.5-0.3-0.7-0.4c-1.8-1.1-3.7-1.6-5.8-1.4c-2.1,0.2-3.6,1.3-4.1,3.3c-0.5,2.1-0.5,4.2,0,6.3
		c0.5,1.8,1.7,2.9,3.6,3.3c2.2,0.4,4.2-0.1,6.1-1.1c0.2-0.1,0.3-0.2,0.4-0.3C84.7,21.5,84.9,21.4,85.2,21.3z"/>
	<path id="XMLID_28_" class="st0" d="M138.3,21.4c0,1.2,0,2.5,0,3.8c0,0.2-0.2,0.4-0.4,0.4c-3.5,1.4-7.2,1.8-10.8,0.3
		c-2.5-1-3.9-3-4.5-5.6c-0.6-2.6-0.6-5.1,0-7.7c0.9-3.7,3.4-5.8,7.1-6.3c2.7-0.4,5.3,0.1,7.8,1c0.5,0.2,0.6,0.5,0.6,1
		c0,1.1,0,2.2,0,3.5c-0.3-0.2-0.6-0.3-0.8-0.5c-2-1.1-4.1-1.7-6.4-1.2c-1.8,0.4-3,1.4-3.4,3.2c-0.6,2.1-0.6,4.3,0,6.4
		c0.5,1.8,1.7,2.9,3.5,3.2c2.2,0.4,4.3,0,6.2-1.1c0.3-0.1,0.6-0.3,0.8-0.5C138.2,21.3,138.3,21.4,138.3,21.4z"/>
	<path id="XMLID_27_" class="st0" d="M117.5,26.4c-1.6,0-3.1,0-4.7,0c0-6.6,0-13.1,0-19.7c1.6,0,3.1,0,4.7,0
		C117.5,13.3,117.5,19.8,117.5,26.4z"/>
	<path id="XMLID_23_" class="st1" d="M75.7,43.1c0.1,0.1,0.2,0.2,0.3,0.2c1.5,1.1,1.9,2.5,1.4,4.3c-0.4,1.4-1.7,2.4-3.4,2.5
		c-1.4,0-2.8,0-4.2,0c-0.5,0-0.6-0.2-0.6-0.6c0-4.2,0-8.4,0-12.7c0-0.4,0.1-0.6,0.5-0.6c1.4,0,2.9,0,4.3,0c1.7,0.1,2.9,1,3.3,2.5
		c0.5,1.7,0,3-1.4,4.1C75.9,43,75.8,43,75.7,43.1z M70.7,46.3c0,0.7,0,1.3,0,2c0,0.5,0.1,0.7,0.6,0.6c0.8,0,1.6,0,2.3,0
		c1.5,0,2.4-1,2.4-2.4c0-1.6-0.8-2.6-2.3-2.7c-0.8,0-1.7,0-2.5,0c-0.4,0-0.6,0.2-0.6,0.6C70.7,45,70.7,45.6,70.7,46.3z M70.7,40
		c0,0.7,0,1.3,0,2c0,0.2,0.3,0.5,0.5,0.5c0.9,0.1,1.7,0.1,2.6,0c1.4-0.1,2.3-1.1,2.3-2.5c0-1.4-0.9-2.3-2.3-2.4c-0.8,0-1.7,0-2.5,0
		c-0.5,0-0.6,0.2-0.6,0.6C70.7,38.8,70.7,39.4,70.7,40z"/>
	<path id="XMLID_20_" class="st1" d="M128.7,43.3c0,1.1,0,2.2,0,3.4c-0.1,2-1.4,3.4-3.4,3.5c-1.5,0.1-2.9,0-4.4,0
		c-0.4,0-0.5-0.2-0.5-0.6c0-4.2,0-8.5,0-12.7c0-0.4,0.2-0.5,0.6-0.5c1.4,0,2.9,0,4.3,0c2,0.1,3.4,1.5,3.4,3.5
		C128.7,41,128.7,42.1,128.7,43.3z M121.8,43.3c0,1.7,0,3.3,0,5c0,0.5,0.1,0.7,0.7,0.7c0.8,0,1.6,0,2.3,0c1.5-0.1,2.4-1,2.4-2.5
		c0-2.1,0-4.2,0-6.4c0-1.5-0.9-2.4-2.4-2.5c-0.8,0-1.5,0-2.3,0c-0.5,0-0.7,0.2-0.7,0.7C121.8,39.9,121.8,41.6,121.8,43.3z"/>
	<path id="XMLID_19_" class="st1" d="M208.3,40.6c0,0.9,0,1.7,0,2.6c0,2.8,0,5.6,0,8.3c0,3.1-2.9,4.8-5.7,3.5
		c-0.6-0.3-1.1-0.9-1.8-1.5c0.5-0.3,0.7-0.4,1-0.5c0.3-0.2,0.5-0.1,0.8,0.2c0.8,0.9,1.7,1.2,2.7,0.8c1-0.4,1.5-1.2,1.5-2.4
		c0-0.8,0-1.6,0-2.4c0,0,0-0.1-0.1-0.2c-0.1,0.1-0.3,0.1-0.4,0.3c-0.8,1-1.9,1.2-3.1,0.9c-1.2-0.4-2.1-1.1-2.4-2.4
		c-0.1-0.5-0.1-1.1-0.1-1.7c0-1.8,0-3.6,0-5.4c0.5,0,0.9,0,1.5,0c0,0.5,0,1.1,0,1.6c0,1.4,0,2.8,0,4.2c0,1.5,1,2.5,2.3,2.5
		c1.4,0,2.3-1,2.3-2.5c0-1.6,0-3.2,0-4.8C206.8,40.3,206.8,40.3,208.3,40.6z"/>
	<path id="XMLID_16_" class="st1" d="M89.1,48.5c-0.8,1.6-2.4,2.2-4.4,1.8c-1.5-0.3-2.6-1.4-2.8-3.1c-0.1-1.2-0.1-2.5,0-3.7
		c0.2-1.9,1.8-3.3,3.7-3.3c2,0,3.6,1.4,3.9,3.3c0.2,1.9,0.2,1.9-1.6,1.9c-1.2,0-2.5,0-3.7,0c-0.7,0-0.8,0.2-0.8,0.8
		c0,0.7,0,1.5,0.5,2.1c0.9,1.1,2.3,1.2,3.4,0.2C88,47.7,88.1,47.7,89.1,48.5z M87.9,44.3c0.2-1.1-0.2-1.9-1-2.5
		C86,41.3,85,41.4,84.2,42c-0.8,0.6-1,1.4-0.8,2.3C84.9,44.3,86.4,44.3,87.9,44.3z"/>
	<path id="XMLID_13_" class="st1" d="M140.2,48.5c-0.8,1.6-2.4,2.2-4.4,1.8c-1.6-0.3-2.7-1.4-2.8-3.1c-0.1-1.2-0.1-2.4,0-3.6
		c0.1-2,1.8-3.4,3.8-3.4c2,0,3.7,1.4,3.9,3.4c0.2,1.8,0.2,1.8-1.6,1.8c-1.3,0-2.6,0-4,0c-0.5,0-0.7,0.1-0.6,0.6c0,0.8,0,1.6,0.5,2.3
		c0.9,1.1,2.3,1.2,3.4,0.2C139.2,47.7,139.3,47.7,140.2,48.5z M139.1,44.3c0.2-1.1-0.2-1.8-1-2.4c-0.7-0.5-1.8-0.5-2.5,0
		c-0.8,0.6-1.1,1.4-1,2.4C136,44.3,137.5,44.3,139.1,44.3z"/>
	<path id="XMLID_12_" class="st1" d="M101,42.1c-0.4,0.2-0.8,0.4-1.2,0.6c-0.9-1.5-2.3-1.5-3.7-1.2c-0.6,0.1-1,0.5-1.1,1.1
		c-0.1,0.6,0.1,1.1,0.7,1.4c0.6,0.2,1.2,0.4,1.9,0.6c0.4,0.1,0.9,0.2,1.4,0.3c1.5,0.4,2.1,1,2.2,2.2c0.1,1.4-0.7,2.6-2,3
		c-1.3,0.4-2.6,0.4-3.9-0.1c-0.8-0.3-1.4-0.8-1.7-1.6c0.9-0.7,1-0.7,1.7,0c0.8,0.8,2.8,1,3.7,0.3c0.4-0.3,0.7-0.9,0.6-1.4
		c0-0.4-0.5-0.9-0.9-1.1c-0.9-0.4-1.9-0.5-2.9-0.8c-1.5-0.4-2.1-1-2.2-2.2c-0.1-1.4,0.6-2.6,2-3c1.7-0.5,3.4-0.5,4.8,0.7
		c0.1,0.1,0.3,0.3,0.4,0.4C100.8,41.8,100.8,41.9,101,42.1z"/>
	<path id="XMLID_11_" class="st1" d="M171.7,48.5c0.9-0.7,1-0.7,1.7,0c0.8,0.8,2.7,1,3.6,0.4c0.5-0.3,0.9-0.8,0.7-1.4
		c-0.1-0.4-0.5-0.9-0.9-1.1c-0.9-0.4-1.9-0.5-2.9-0.8c-1.5-0.4-2.1-1-2.2-2.2c-0.1-1.4,0.6-2.5,1.9-3c1.3-0.5,2.6-0.4,3.9,0.1
		c0.7,0.3,1.3,0.8,1.7,1.6c-0.4,0.2-0.8,0.4-1.2,0.6c-0.9-1.5-2.3-1.5-3.7-1.2c-0.6,0.1-1,0.5-1.1,1.1c-0.1,0.6,0.1,1.1,0.7,1.4
		c0.6,0.2,1.2,0.4,1.9,0.6c0.4,0.1,0.9,0.2,1.4,0.3c1.5,0.4,2.1,1,2.2,2.2c0.1,1.4-0.7,2.6-2,3c-1.3,0.4-2.6,0.4-3.9-0.1
		C172.7,49.8,172.1,49.3,171.7,48.5z"/>
	<path id="XMLID_10_" class="st1" d="M144.9,50.1c0-3.2,0-6.4,0-9.6c0.4,0,0.7,0,1.1,0c0,0.4,0.1,0.8,0.1,1.3
		c0.2-0.2,0.4-0.3,0.5-0.4c1-1.2,2.2-1.2,3.5-0.8c1.3,0.5,2.2,1.4,2.3,2.8c0.1,2.2,0,4.3,0,6.6c-0.5,0-0.9,0-1.5,0
		c0-0.6,0-1.2,0-1.7c0-1.4,0-2.7,0-4.1c0-1.5-1-2.6-2.3-2.6c-1.4,0-2.3,1-2.3,2.6c0,1.6,0,3.3,0,4.9c0,1,0,1-1,1
		C145.3,50.2,145.1,50.2,144.9,50.1z"/>
	<path id="XMLID_9_" class="st1" d="M104.2,41.7c0-0.9,2.3-3.3,3.2-3.2c0,0.6,0,1.2,0,2c0.7,0,1.3,0,2,0c0,0.4,0,0.8,0,1.3
		c-0.5,0-0.9,0-1.4,0c-0.4,0-0.6,0.1-0.6,0.5c0,1.6,0,3.1,0,4.7c0,0.9,0.4,1.6,1.3,1.9c0.8,0.3,0.9,0.8,0.7,1.4
		c-2,0.2-3.5-1.6-3.5-3.1c0-1.5,0-3,0-4.5c0-1,0-1-1-1C104.7,41.7,104.5,41.7,104.2,41.7z"/>
	<path id="XMLID_8_" class="st1" d="M159.2,38.5c0,0.5,0,0.9,0,1.3c-0.1,0.6,0.2,0.8,0.8,0.7c0.4,0,0.8,0,1.3,0c0,0.4,0,0.8,0,1.2
		c-0.5,0-1,0-1.5,0c-0.4,0-0.5,0.1-0.5,0.5c0,1.6,0,3.1,0,4.7c0,0.9,0.4,1.6,1.3,1.9c0.8,0.3,0.9,0.7,0.7,1.4
		c-1.5,0.3-3.4-1.2-3.5-3.1c0-1.5,0-3,0-4.5c0-1,0-1-1-1c-0.2,0-0.4,0-0.6,0C155.9,40.8,158.2,38.4,159.2,38.5z"/>
	<path id="XMLID_7_" class="st1" d="M185.7,38.5c0,0.5,0,1,0,1.5c0,0.4,0.1,0.5,0.5,0.5c0.5,0,1,0,1.5,0c0,0.4,0,0.8,0,1.2
		c-0.7,0-1.3,0-2,0c0,1.1,0,2.1,0,3.1c0,0.7,0,1.3,0,2c0,0.9,0.4,1.7,1.3,2c0.9,0.3,0.8,0.8,0.7,1.4c-1.8,0.1-3.4-1.3-3.5-3.2
		c-0.1-1.5-0.1-3,0-4.5c0-0.7-0.2-1-0.9-0.9c-0.3,0-0.5,0-0.8,0C182.4,40.8,184.7,38.4,185.7,38.5z"/>
	<path id="XMLID_6_" class="st1" d="M192.1,40.5c0.4,0,0.7,0,1.1,0c0,0.5,0.1,1,0.1,1.6c1-0.7,1.7-1.9,3.1-1.6c0,0.2,0,0.4,0,0.6
		c0.1,0.5-0.1,0.8-0.7,0.8c-1.3,0-2.2,1-2.2,2.3c0,1.6,0,3.2,0,4.8c0,1,0,1-1,1c-0.1,0-0.2,0-0.4,0
		C192.1,46.9,192.1,43.8,192.1,40.5z"/>
	<path id="XMLID_5_" class="st0" d="M214.3,6.4c-0.2,2-0.3,3.9-0.5,5.9c-0.8,0-1.5,0-2.3,0c-0.2-2-0.3-3.9-0.5-5.9
		C212.1,6.4,213.1,6.4,214.3,6.4z"/>
	<path id="XMLID_4_" class="st1" d="M165.7,50.1c0-3.2,0-6.4,0-9.6c0.5,0,0.9,0,1.5,0c0,0.3,0,0.5,0,0.8c0,2.5,0,5.1,0,7.6
		C167.2,50.3,167.2,50.3,165.7,50.1z"/>
	<path id="XMLID_3_" class="st1" d="M166.4,36.1c0.5,0,1,0.4,1,1c0,0.5-0.4,1-1,1c-0.5,0-1-0.4-1-0.9
		C165.5,36.6,165.9,36.1,166.4,36.1z"/>
</g>
</svg>
